<svg height="312.80777" width="224.22508" xmlns="http://www.w3.org/2000/svg"><g transform="translate(-1196.47813 -277.642101)"><g><rect fill="#fff" height="311.81104" rx="10.629921" stroke="#000" stroke-width=".996733" width="223.22835" x="1196.9765" y="278.1405"/><g transform="matrix(.30106207 0 0 .30106207 618.9075 1075.1505)"><path d="m1947.7014-2492.4202.5475-6.7053c1.6921-20.7232 6.2259-27.7229 31.9598-49.3427 12.4881-10.4917 16.588-15.6693 17.1653-21.6774 1.6305-14.1496-11.1311-18.5702-19.4476-18.6469-10.7689-.099-22.9509 6.3494-17.1429 21.3044l-12.079 3.547c-2.4391-13.9512.056-27.0442 11.3776-32.8584 15.1008-7.5722 34.4781-4.6012 44.2548 7.33 6.5707 8.0186 8.0644 19.0862 4.5432 27.754-10.299 22.16-45.2435 31.9083-48.132 57.5277h38.6337v-14.2665h11.3788v26.2639z"/><path d="m2633.9663-1766.5324-.5475 6.7053c-1.6921 20.7232-6.2259 27.7229-31.9598 49.3427-12.4881 10.4917-16.588 15.6693-17.1653 21.6774-1.6305 14.1496 11.1311 18.5702 19.4476 18.6469 10.7689.099 22.9509-6.3494 17.1429-21.3044l12.079-3.547c2.4391 13.9512-.056 27.0442-11.3776 32.8584-15.1008 7.5722-34.4781 4.6012-44.2548-7.33-6.5707-8.0186-8.0644-19.0862-4.5432-27.754 10.299-22.16 45.2435-31.9083 48.132-57.5277h-38.6337v14.2665h-11.3788v-26.2639z"/></g></g><path d="m1307.5477 346.30338c.015-2.0257-1.5868-2.06443-1.5686-.58579-.1343 7.42864-6.4165 11.08642-10.9806 10.21873-7.0361-1.33763-9.2818-8.32207-9.2147-12.43542.2072-12.69631 12.9878-22.05842 24.5202-38.33458 8.4501 14.69076 22.3972 26.22964 23.2229 37.58575 1.0977 15.09805-18.0089 20.72969-20.7369 3.13271-.176-1.24304-1.6397-1.80111-1.5261-.065.4145 4.82259-.1749 6.83135 5.2657 18.7194h-14.2217c3.1497-5.55487 5.0254-12.37457 5.2398-18.23576z"/><path d="m1307.5585 522.23564c.015 2.0257-1.5868 2.06443-1.5686.58579-.1343-7.42864-6.4165-11.08642-10.9806-10.21873-7.0361 1.33763-9.2818 8.32207-9.2147 12.43542.2072 12.69631 12.9878 22.05842 24.5202 38.33458 8.4501-14.69076 22.3972-26.22964 23.2229-37.58575 1.0977-15.09805-18.0089-20.72969-20.7369-3.13271-.176 1.24304-1.6397 1.80111-1.5261.065.4145-4.82259-.1749-6.83135 5.2657-18.7194h-14.2217c3.1497 5.55487 5.0254 12.37457 5.2398 18.23576z"/><path d="m1215.4344 347.42806c.01-.87153-.8953-.46463-1.0178-.1903-1.1632 1.9856-2.8648 2.44767-4.5479 1.73181-1.6673-.70915-2.6042-2.28034-2.4539-4.52216.3102-3.43783 3.0354-7.19955 4.355-9.32622 1.252-1.92991 2.6279-4.22218 4.0767-7.15411 1.6972 3.36322 2.5586 4.32058 4.4051 7.3915 1.626 2.70441 3.8925 5.35298 4.0675 8.62236 0 2.48491-1.046 4.83184-3.3994 5.25941-1.3314.2419-2.5787-.44156-3.5038-2.03686-.2818-.40656-.8487-.19466-.8392.3619.1651 2.09332.9553 3.98322 2.8294 6.21164h-6.887c1.4101-1.57596 2.8487-3.70367 2.9153-6.34897z"/><path d="m1403.1583 520.58759c.01.87153-.8953.46462-1.0178.1903-1.1632-1.9856-2.8648-2.44767-4.5479-1.73181-1.6673.70915-2.6042 2.28034-2.4539 4.52216.3102 3.43783 3.0354 7.19955 4.355 9.32622 1.252 1.92992 2.6279 4.22219 4.0767 7.15412 1.6972-3.36323 2.5586-4.32059 4.4051-7.39151 1.626-2.7044 3.8925-5.35298 4.0675-8.62236 0-2.48491-1.046-4.83184-3.3994-5.25941-1.3314-.24189-2.5787.44156-3.5038 2.03687-.2818.40655-.8487.19465-.8392-.36191.1651-2.09332.9553-3.98322 2.8294-6.21164h-6.887c1.4101 1.57597 2.8487 3.70368 2.9153 6.34897z"/></g></svg>